<svg id="visual" viewBox="0 0 540 960" width="540" height="960" xmlns="http://www.w3.org/2000/svg" xmlns:xlink="http://www.w3.org/1999/xlink" version="1.1"><rect x="0" y="0" width="540" height="960" fill="#f3e5ff"></rect><path d="M0 391L18 398.3C36 405.7 72 420.3 108 403.3C144 386.3 180 337.7 216 329.7C252 321.7 288 354.3 324 346.3C360 338.3 396 289.7 432 279C468 268.3 504 295.7 522 309.3L540 323L540 0L522 0C504 0 468 0 432 0C396 0 360 0 324 0C288 0 252 0 216 0C180 0 144 0 108 0C72 0 36 0 18 0L0 0Z" fill="#7d3dff" stroke-linecap="round" stroke-linejoin="miter"></path></svg>